{
	"asset":{
		"generator":"Khronos glTF Blender I/O v4.3.47",
		"version":"2.0"
	},
	"extensionsUsed":[
		"KHR_materials_emissive_strength",
		"KHR_materials_specular",
		"KHR_materials_ior"
	],
	"scene":0,
	"scenes":[
		{
			"extras":{
				"sprytile_data":{
					"auto_reload":0,
					"world_pixels":32
				}
			},
			"name":"Scene",
			"nodes":[
				0,
				1,
				2,
				3,
				4,
				5
			]
		}
	],
	"nodes":[
		{
			"extras":{
				"MHName":"o4saken_long01"
			},
			"mesh":0,
			"name":"Hair",
			"rotation":[
				0.7071068286895752,
				0,
				0,
				0.7071068286895752
			],
			"scale":[
				0.10000000149011612,
				0.10000000149011612,
				0.10000000149011612
			]
		},
		{
			"extras":{
				"MHName":"high-poly"
			},
			"mesh":1,
			"name":"ArmBand",
			"rotation":[
				0.7071068286895752,
				0,
				0,
				0.7071068286895752
			],
			"scale":[
				0.10000000149011612,
				0.10000000149011612,
				0.10000000149011612
			]
		},
		{
			"extras":{
				"MHName":"male_generic"
			},
			"mesh":2,
			"name":"Body",
			"rotation":[
				0.70710688829422,
				0,
				0,
				0.7071066498756409
			],
			"scale":[
				0.10000000149011612,
				0.10000000149011612,
				0.10000000149011612
			]
		},
		{
			"extras":{
				"MHName":"high-poly"
			},
			"mesh":3,
			"name":"Eyes",
			"rotation":[
				0.70710688829422,
				0,
				0,
				0.7071066498756409
			],
			"scale":[
				0.10000000149011612,
				0.10000000149011612,
				0.10000000149011612
			]
		},
		{
			"extras":{
				"MHName":"shoes03"
			},
			"mesh":4,
			"name":"Clothes",
			"rotation":[
				0.70710688829422,
				0,
				0,
				0.7071066498756409
			],
			"scale":[
				0.10000000149011612,
				0.10000000149011612,
				0.10000000149011612
			]
		},
		{
			"mesh":5,
			"name":"HeadPiece"
		}
	],
	"materials":[
		{
			"alphaMode":"BLEND",
			"doubleSided":true,
			"name":"SilverHairMat",
			"pbrMetallicRoughness":{
				"metallicFactor":0,
				"roughnessFactor":0.5
			}
		},
		{
			"alphaMode":"BLEND",
			"doubleSided":true,
			"name":"SilverHairTranslucent",
			"pbrMetallicRoughness":{
				"metallicFactor":0,
				"roughnessFactor":0.5
			}
		},
		{
			"doubleSided":true,
			"name":"WhiteFabricMat",
			"normalTexture":{
				"index":0
			},
			"pbrMetallicRoughness":{
				"baseColorTexture":{
					"index":1
				},
				"metallicFactor":0.6545454263687134,
				"metallicRoughnessTexture":{
					"index":2
				}
			}
		},
		{
			"doubleSided":true,
			"name":"RedFabricMat",
			"normalTexture":{
				"index":3
			},
			"pbrMetallicRoughness":{
				"baseColorTexture":{
					"index":4
				},
				"metallicFactor":0.9318181872367859,
				"metallicRoughnessTexture":{
					"index":5
				}
			}
		},
		{
			"doubleSided":true,
			"extensions":{
				"KHR_materials_specular":{
					"specularColorFactor":[
						2.0,
						2.0,
						2.0
					]
				},
				"KHR_materials_ior":{
					"ior":1.4500000476837158
				}
			},
			"extras":{
				"TransparencyFactor":1.0
			},
			"name":"BodyMat",
			"normalTexture":{
				"index":6
			},
			"pbrMetallicRoughness":{
				"baseColorTexture":{
					"index":7
				},
				"metallicRoughnessTexture":{
					"index":8
				}
			}
		},
		{
			"doubleSided":true,
			"emissiveFactor":[
				1,
				1,
				1
			],
			"emissiveTexture":{
				"index":9
			},
			"extensions":{
				"KHR_materials_emissive_strength":{
					"emissiveStrength":10
				},
				"KHR_materials_specular":{
					"specularColorFactor":[
						2.0,
						2.0,
						2.0
					]
				},
				"KHR_materials_ior":{
					"ior":1.4500000476837158
				}
			},
			"extras":{
				"TransparencyFactor":1.0
			},
			"name":"high-poly.001",
			"pbrMetallicRoughness":{
				"baseColorTexture":{
					"index":10
				},
				"roughnessFactor":0.3681817650794983
			}
		}
	],
	"meshes":[
		{
			"extras":{
				"MHName":"o4saken_long01Mesh"
			},
			"name":"o4saken_long01",
			"primitives":[
				{
					"attributes":{
						"POSITION":0,
						"NORMAL":1,
						"TEXCOORD_0":2,
						"TANGENT":3
					},
					"indices":4,
					"material":0
				},
				{
					"attributes":{
						"POSITION":5,
						"NORMAL":6,
						"TEXCOORD_0":7,
						"TANGENT":8
					},
					"indices":9,
					"material":1
				}
			]
		},
		{
			"extras":{
				"MHName":"high-polyMesh"
			},
			"name":"high-poly.002",
			"primitives":[
				{
					"attributes":{
						"POSITION":10,
						"NORMAL":11,
						"TEXCOORD_0":12,
						"TANGENT":13
					},
					"indices":14,
					"material":2
				},
				{
					"attributes":{
						"POSITION":15,
						"NORMAL":16,
						"TEXCOORD_0":17,
						"TANGENT":18
					},
					"indices":19,
					"material":3
				}
			]
		},
		{
			"extras":{
				"MHName":"male_genericMesh"
			},
			"name":"male_generic",
			"primitives":[
				{
					"attributes":{
						"POSITION":20,
						"NORMAL":21,
						"TEXCOORD_0":22,
						"TANGENT":23
					},
					"indices":24,
					"material":4
				}
			]
		},
		{
			"extras":{
				"MHName":"high-polyMesh"
			},
			"name":"high-poly",
			"primitives":[
				{
					"attributes":{
						"POSITION":25,
						"NORMAL":26,
						"TEXCOORD_0":27,
						"TANGENT":28
					},
					"indices":29,
					"material":5
				}
			]
		},
		{
			"extras":{
				"MHName":"shoes03Mesh"
			},
			"name":"shoes03",
			"primitives":[
				{
					"attributes":{
						"POSITION":30,
						"NORMAL":31,
						"TEXCOORD_0":32,
						"TANGENT":33
					},
					"indices":34,
					"material":2
				},
				{
					"attributes":{
						"POSITION":35,
						"NORMAL":36,
						"TEXCOORD_0":37,
						"TANGENT":38
					},
					"indices":39,
					"material":3
				}
			]
		},
		{
			"name":"Cube",
			"primitives":[
				{
					"attributes":{
						"POSITION":40,
						"NORMAL":41,
						"TEXCOORD_0":42,
						"TANGENT":43
					},
					"indices":44,
					"material":4
				}
			]
		}
	],
	"textures":[
		{
			"sampler":0,
			"source":0
		},
		{
			"sampler":0,
			"source":1
		},
		{
			"sampler":0,
			"source":2
		},
		{
			"sampler":0,
			"source":3
		},
		{
			"sampler":0,
			"source":4
		},
		{
			"sampler":0,
			"source":5
		},
		{
			"sampler":0,
			"source":6
		},
		{
			"sampler":0,
			"source":7
		},
		{
			"sampler":0,
			"source":8
		},
		{
			"sampler":0,
			"source":9
		},
		{
			"sampler":0,
			"source":10
		}
	],
	"images":[
		{
			"mimeType":"image/jpeg",
			"name":"WhiteFabric_Normal.jpg",
			"uri":"../../assets/Models/Bosses/textures/ClothesFabric/WhiteFabric_Normal.jpg"
		},
		{
			"mimeType":"image/jpeg",
			"name":"WhiteFabric_Diffuse.jpg",
			"uri":"../../assets/Models/Bosses/textures/ClothesFabric/WhiteFabric_Diffuse.jpg"
		},
		{
			"mimeType":"image/jpeg",
			"name":"WhiteFabric_Roughness.jpg.001",
			"uri":"../../assets/Models/Bosses/textures/ClothesFabric/WhiteFabric_Roughness.jpg"
		},
		{
			"mimeType":"image/png",
			"name":"RedFabricNormal.png",
			"uri":"../../assets/Models/Bosses/textures/RedFabric/RedFabricNormal.png"
		},
		{
			"mimeType":"image/png",
			"name":"RedFabricDiffuse.png",
			"uri":"../../assets/Models/Bosses/textures/RedFabric/RedFabricDiffuse.png"
		},
		{
			"mimeType":"image/png",
			"name":"RedFabricRoughness.png",
			"uri":"../../assets/Models/Bosses/textures/RedFabric/RedFabricRoughness.png"
		},
		{
			"mimeType":"image/png",
			"name":"SkinNormal.png",
			"uri":"../../assets/Models/Bosses/textures/Body/Skin/SkinNormal.png"
		},
		{
			"mimeType":"image/png",
			"name":"SkinDiffuse.png",
			"uri":"../../assets/Models/Bosses/textures/Body/Skin/SkinDiffuse.png"
		},
		{
			"mimeType":"image/png",
			"name":"SkinRoughness.png",
			"uri":"../../assets/Models/Bosses/textures/Body/Skin/SkinRoughness.png"
		},
		{
			"mimeType":"image/png",
			"name":"EyesEmissive.png",
			"uri":"../../assets/Models/Bosses/textures/Body/EyesEmissive.png"
		},
		{
			"mimeType":"image/png",
			"name":"EyesDiffuse.png",
			"uri":"../../assets/Models/Bosses/textures/Body/EyesDiffuse.png"
		}
	],
	"accessors":[
		{
			"bufferView":0,
			"componentType":5126,
			"count":15553,
			"max":[
				12.094558715820312,
				18.253429412841797,
				-169.95111083984375
			],
			"min":[
				-10.926298141479492,
				-8.916239738464355,
				-194.05184936523438
			],
			"type":"VEC3"
		},
		{
			"bufferView":1,
			"componentType":5126,
			"count":15553,
			"type":"VEC3"
		},
		{
			"bufferView":2,
			"componentType":5126,
			"count":15553,
			"type":"VEC2"
		},
		{
			"bufferView":3,
			"componentType":5126,
			"count":15553,
			"type":"VEC4"
		},
		{
			"bufferView":4,
			"componentType":5123,
			"count":41454,
			"type":"SCALAR"
		},
		{
			"bufferView":5,
			"componentType":5126,
			"count":15566,
			"max":[
				12.764274597167969,
				18.717506408691406,
				-169.95111083984375
			],
			"min":[
				-11.457832336425781,
				-10.064933776855469,
				-197.33485412597656
			],
			"type":"VEC3"
		},
		{
			"bufferView":6,
			"componentType":5126,
			"count":15566,
			"type":"VEC3"
		},
		{
			"bufferView":7,
			"componentType":5126,
			"count":15566,
			"type":"VEC2"
		},
		{
			"bufferView":8,
			"componentType":5126,
			"count":15566,
			"type":"VEC4"
		},
		{
			"bufferView":9,
			"componentType":5123,
			"count":36786,
			"type":"SCALAR"
		},
		{
			"bufferView":10,
			"componentType":5126,
			"count":719,
			"max":[
				-19.277055740356445,
				9.043999671936035,
				-139.19287109375
			],
			"min":[
				-35.05908203125,
				-7.541175842285156,
				-154.21327209472656
			],
			"type":"VEC3"
		},
		{
			"bufferView":11,
			"componentType":5126,
			"count":719,
			"type":"VEC3"
		},
		{
			"bufferView":12,
			"componentType":5126,
			"count":719,
			"type":"VEC2"
		},
		{
			"bufferView":13,
			"componentType":5126,
			"count":719,
			"type":"VEC4"
		},
		{
			"bufferView":14,
			"componentType":5123,
			"count":2880,
			"type":"SCALAR"
		},
		{
			"bufferView":15,
			"componentType":5126,
			"count":1062,
			"max":[
				-19.743379592895508,
				9.425691604614258,
				-139.59225463867188
			],
			"min":[
				-34.72187042236328,
				-7.875670433044434,
				-153.3448028564453
			],
			"type":"VEC3"
		},
		{
			"bufferView":16,
			"componentType":5126,
			"count":1062,
			"type":"VEC3"
		},
		{
			"bufferView":17,
			"componentType":5126,
			"count":1062,
			"type":"VEC2"
		},
		{
			"bufferView":18,
			"componentType":5126,
			"count":1062,
			"type":"VEC4"
		},
		{
			"bufferView":19,
			"componentType":5123,
			"count":4800,
			"type":"SCALAR"
		},
		{
			"bufferView":20,
			"componentType":5126,
			"count":12061,
			"max":[
				61.990657806396484,
				41.364139556884766,
				-34.787994384765625
			],
			"min":[
				-61.990657806396484,
				-10.410479545593262,
				-191.97425842285156
			],
			"type":"VEC3"
		},
		{
			"bufferView":21,
			"componentType":5126,
			"count":12061,
			"type":"VEC3"
		},
		{
			"bufferView":22,
			"componentType":5126,
			"count":12061,
			"type":"VEC2"
		},
		{
			"bufferView":23,
			"componentType":5126,
			"count":12061,
			"type":"VEC4"
		},
		{
			"bufferView":24,
			"componentType":5123,
			"count":67380,
			"type":"SCALAR"
		},
		{
			"bufferView":25,
			"componentType":5126,
			"count":1076,
			"max":[
				4.813014984130859,
				15.728865623474121,
				-178.8036651611328
			],
			"min":[
				-4.813014984130859,
				13.003833770751953,
				-182.01426696777344
			],
			"type":"VEC3"
		},
		{
			"bufferView":26,
			"componentType":5126,
			"count":1076,
			"type":"VEC3"
		},
		{
			"bufferView":27,
			"componentType":5126,
			"count":1076,
			"type":"VEC2"
		},
		{
			"bufferView":28,
			"componentType":5126,
			"count":1076,
			"type":"VEC4"
		},
		{
			"bufferView":29,
			"componentType":5123,
			"count":6120,
			"type":"SCALAR"
		},
		{
			"bufferView":30,
			"componentType":5126,
			"count":5381,
			"max":[
				29.50383758544922,
				26.533985137939453,
				2.6958541870117188
			],
			"min":[
				-29.421783447265625,
				-18.141983032226562,
				-169.11595153808594
			],
			"type":"VEC3"
		},
		{
			"bufferView":31,
			"componentType":5126,
			"count":5381,
			"type":"VEC3"
		},
		{
			"bufferView":32,
			"componentType":5126,
			"count":5381,
			"type":"VEC2"
		},
		{
			"bufferView":33,
			"componentType":5126,
			"count":5381,
			"type":"VEC4"
		},
		{
			"bufferView":34,
			"componentType":5123,
			"count":29064,
			"type":"SCALAR"
		},
		{
			"bufferView":35,
			"componentType":5126,
			"count":4133,
			"max":[
				25.293964385986328,
				18.513200759887695,
				-4.326148986816406
			],
			"min":[
				-25.293964385986328,
				-8.65159797668457,
				-165.2119598388672
			],
			"type":"VEC3"
		},
		{
			"bufferView":36,
			"componentType":5126,
			"count":4133,
			"type":"VEC3"
		},
		{
			"bufferView":37,
			"componentType":5126,
			"count":4133,
			"type":"VEC2"
		},
		{
			"bufferView":38,
			"componentType":5126,
			"count":4133,
			"type":"VEC4"
		},
		{
			"bufferView":39,
			"componentType":5123,
			"count":21864,
			"type":"SCALAR"
		},
		{
			"bufferView":40,
			"componentType":5126,
			"count":1302,
			"max":[
				1.5966497659683228,
				20.070486068725586,
				0.8108031153678894
			],
			"min":[
				-1.5966496467590332,
				18.270856857299805,
				0.5643017292022705
			],
			"type":"VEC3"
		},
		{
			"bufferView":41,
			"componentType":5126,
			"count":1302,
			"type":"VEC3"
		},
		{
			"bufferView":42,
			"componentType":5126,
			"count":1302,
			"type":"VEC2"
		},
		{
			"bufferView":43,
			"componentType":5126,
			"count":1302,
			"type":"VEC4"
		},
		{
			"bufferView":44,
			"componentType":5123,
			"count":3216,
			"type":"SCALAR"
		}
	],
	"bufferViews":[
		{
			"buffer":0,
			"byteLength":186636,
			"byteOffset":0,
			"target":34962
		},
		{
			"buffer":0,
			"byteLength":186636,
			"byteOffset":186636,
			"target":34962
		},
		{
			"buffer":0,
			"byteLength":124424,
			"byteOffset":373272,
			"target":34962
		},
		{
			"buffer":0,
			"byteLength":248848,
			"byteOffset":497696,
			"target":34962
		},
		{
			"buffer":0,
			"byteLength":82908,
			"byteOffset":746544,
			"target":34963
		},
		{
			"buffer":0,
			"byteLength":186792,
			"byteOffset":829452,
			"target":34962
		},
		{
			"buffer":0,
			"byteLength":186792,
			"byteOffset":1016244,
			"target":34962
		},
		{
			"buffer":0,
			"byteLength":124528,
			"byteOffset":1203036,
			"target":34962
		},
		{
			"buffer":0,
			"byteLength":249056,
			"byteOffset":1327564,
			"target":34962
		},
		{
			"buffer":0,
			"byteLength":73572,
			"byteOffset":1576620,
			"target":34963
		},
		{
			"buffer":0,
			"byteLength":8628,
			"byteOffset":1650192,
			"target":34962
		},
		{
			"buffer":0,
			"byteLength":8628,
			"byteOffset":1658820,
			"target":34962
		},
		{
			"buffer":0,
			"byteLength":5752,
			"byteOffset":1667448,
			"target":34962
		},
		{
			"buffer":0,
			"byteLength":11504,
			"byteOffset":1673200,
			"target":34962
		},
		{
			"buffer":0,
			"byteLength":5760,
			"byteOffset":1684704,
			"target":34963
		},
		{
			"buffer":0,
			"byteLength":12744,
			"byteOffset":1690464,
			"target":34962
		},
		{
			"buffer":0,
			"byteLength":12744,
			"byteOffset":1703208,
			"target":34962
		},
		{
			"buffer":0,
			"byteLength":8496,
			"byteOffset":1715952,
			"target":34962
		},
		{
			"buffer":0,
			"byteLength":16992,
			"byteOffset":1724448,
			"target":34962
		},
		{
			"buffer":0,
			"byteLength":9600,
			"byteOffset":1741440,
			"target":34963
		},
		{
			"buffer":0,
			"byteLength":144732,
			"byteOffset":1751040,
			"target":34962
		},
		{
			"buffer":0,
			"byteLength":144732,
			"byteOffset":1895772,
			"target":34962
		},
		{
			"buffer":0,
			"byteLength":96488,
			"byteOffset":2040504,
			"target":34962
		},
		{
			"buffer":0,
			"byteLength":192976,
			"byteOffset":2136992,
			"target":34962
		},
		{
			"buffer":0,
			"byteLength":134760,
			"byteOffset":2329968,
			"target":34963
		},
		{
			"buffer":0,
			"byteLength":12912,
			"byteOffset":2464728,
			"target":34962
		},
		{
			"buffer":0,
			"byteLength":12912,
			"byteOffset":2477640,
			"target":34962
		},
		{
			"buffer":0,
			"byteLength":8608,
			"byteOffset":2490552,
			"target":34962
		},
		{
			"buffer":0,
			"byteLength":17216,
			"byteOffset":2499160,
			"target":34962
		},
		{
			"buffer":0,
			"byteLength":12240,
			"byteOffset":2516376,
			"target":34963
		},
		{
			"buffer":0,
			"byteLength":64572,
			"byteOffset":2528616,
			"target":34962
		},
		{
			"buffer":0,
			"byteLength":64572,
			"byteOffset":2593188,
			"target":34962
		},
		{
			"buffer":0,
			"byteLength":43048,
			"byteOffset":2657760,
			"target":34962
		},
		{
			"buffer":0,
			"byteLength":86096,
			"byteOffset":2700808,
			"target":34962
		},
		{
			"buffer":0,
			"byteLength":58128,
			"byteOffset":2786904,
			"target":34963
		},
		{
			"buffer":0,
			"byteLength":49596,
			"byteOffset":2845032,
			"target":34962
		},
		{
			"buffer":0,
			"byteLength":49596,
			"byteOffset":2894628,
			"target":34962
		},
		{
			"buffer":0,
			"byteLength":33064,
			"byteOffset":2944224,
			"target":34962
		},
		{
			"buffer":0,
			"byteLength":66128,
			"byteOffset":2977288,
			"target":34962
		},
		{
			"buffer":0,
			"byteLength":43728,
			"byteOffset":3043416,
			"target":34963
		},
		{
			"buffer":0,
			"byteLength":15624,
			"byteOffset":3087144,
			"target":34962
		},
		{
			"buffer":0,
			"byteLength":15624,
			"byteOffset":3102768,
			"target":34962
		},
		{
			"buffer":0,
			"byteLength":10416,
			"byteOffset":3118392,
			"target":34962
		},
		{
			"buffer":0,
			"byteLength":20832,
			"byteOffset":3128808,
			"target":34962
		},
		{
			"buffer":0,
			"byteLength":6432,
			"byteOffset":3149640,
			"target":34963
		}
	],
	"samplers":[
		{
			"magFilter":9729,
			"minFilter":9987
		}
	],
	"buffers":[
		{
			"byteLength":3156072,
			"uri":"Helios-7d4559e024d3ab0ac85a842211eaeaa8.bin"
		}
	]
}
