# Blender 3.3.0
# www.blender.org
mtllib Guts.mtl
o Cube
v -0.521609 0.234373 1.026964
v -0.521609 1.200092 1.026964
v -0.521609 0.234373 -0.935245
v -0.521609 1.200092 -0.935245
v 0.627404 0.234373 1.026964
v 0.627404 1.200092 1.026964
v 0.627404 0.234373 -0.935245
v 0.627404 1.200092 -0.935245
v -0.647504 0.128561 0.045859
v -0.647504 0.717232 1.241958
v -0.647504 1.305904 0.045859
v -0.647504 0.717232 -1.150240
v 0.052897 0.128561 -1.150240
v 0.052897 1.305904 -1.150240
v 0.753299 0.717232 -1.150240
v 0.753299 0.128561 0.045859
v 0.753299 1.305904 0.045859
v 0.753299 0.717232 1.241959
v 0.052897 0.128561 1.241958
v 0.052897 1.305904 1.241959
v -0.911706 0.717233 0.045859
v 0.052897 0.717233 -1.601427
v 1.017501 0.717233 0.045859
v 0.052897 0.717233 1.693146
v 0.052897 -0.093495 0.045859
v 0.052897 1.527960 0.045859
vn -0.9118 -0.3683 0.1813
vn -0.9118 0.3683 0.1813
vn -0.9118 0.3683 -0.1813
vn -0.9118 -0.3683 -0.1813
vn -0.4307 -0.5125 -0.7429
vn -0.4307 0.5125 -0.7429
vn 0.4307 0.5125 -0.7429
vn 0.4307 -0.5125 -0.7429
vn 0.9118 -0.3683 -0.1813
vn 0.9118 0.3683 -0.1813
vn 0.9118 0.3683 0.1813
vn 0.9118 -0.3683 0.1813
vn 0.4307 -0.5125 0.7429
vn 0.4307 0.5125 0.7429
vn -0.4307 0.5125 0.7429
vn -0.4307 -0.5125 0.7429
vn -0.2709 -0.9494 -0.1586
vn 0.2709 -0.9494 -0.1586
vn 0.2709 -0.9494 0.1586
vn -0.2709 -0.9494 0.1586
vn 0.2709 0.9494 -0.1586
vn -0.2709 0.9494 -0.1586
vn -0.2709 0.9494 0.1586
vn 0.2709 0.9494 0.1586
vt 0.375000 0.000000
vt 0.375000 1.000000
vt 0.125000 0.750000
vt 0.625000 0.000000
vt 0.625000 1.000000
vt 0.875000 0.750000
vt 0.375000 0.250000
vt 0.125000 0.500000
vt 0.625000 0.250000
vt 0.875000 0.500000
vt 0.375000 0.750000
vt 0.625000 0.750000
vt 0.375000 0.500000
vt 0.625000 0.500000
vt 0.375000 0.125000
vt 0.125000 0.625000
vt 0.500000 0.000000
vt 0.500000 1.000000
vt 0.625000 0.125000
vt 0.875000 0.625000
vt 0.500000 0.250000
vt 0.375000 0.375000
vt 0.250000 0.500000
vt 0.625000 0.375000
vt 0.750000 0.500000
vt 0.500000 0.500000
vt 0.375000 0.625000
vt 0.625000 0.625000
vt 0.500000 0.750000
vt 0.375000 0.875000
vt 0.250000 0.750000
vt 0.625000 0.875000
vt 0.750000 0.750000
vt 0.500000 0.125000
vt 0.500000 0.375000
vt 0.500000 0.625000
vt 0.500000 0.875000
vt 0.250000 0.625000
vt 0.750000 0.625000
s 0
usemtl Material
f 1/1/1 10/17/1 21/34/1 9/15/1
f 10/17/2 2/4/2 11/19/2 21/34/2
f 21/34/3 11/19/3 4/9/3 12/21/3
f 9/15/4 21/34/4 12/21/4 3/7/4
f 3/7/5 12/21/5 22/35/5 13/22/5
f 12/21/6 4/9/6 14/24/6 22/35/6
f 22/35/7 14/24/7 8/14/7 15/26/7
f 13/22/8 22/35/8 15/26/8 7/13/8
f 7/13/9 15/26/9 23/36/9 16/27/9
f 15/26/10 8/14/10 17/28/10 23/36/10
f 23/36/11 17/28/11 6/12/11 18/29/11
f 16/27/12 23/36/12 18/29/12 5/11/12
f 5/11/13 18/29/13 24/37/13 19/30/13
f 18/29/14 6/12/14 20/32/14 24/37/14
f 24/37/15 20/32/15 2/5/15 10/18/15
f 19/30/16 24/37/16 10/18/16 1/2/16
f 3/8/17 13/23/17 25/38/17 9/16/17
f 13/23/18 7/13/18 16/27/18 25/38/18
f 25/38/19 16/27/19 5/11/19 19/31/19
f 9/16/20 25/38/20 19/31/20 1/3/20
f 8/14/21 14/25/21 26/39/21 17/28/21
f 14/25/22 4/10/22 11/20/22 26/39/22
f 26/39/23 11/20/23 2/6/23 20/33/23
f 17/28/24 26/39/24 20/33/24 6/12/24
